<svg width="29" height="30" viewBox="0 0 29 30" fill="none" xmlns="http://www.w3.org/2000/svg">
<g filter="url(#filter0_d_1156_759)">
<path d="M14.9688 2C9.44875 2 4.96875 6.48 4.96875 12C4.96875 17.52 9.44875 22 14.9688 22C20.4888 22 24.9688 17.52 24.9688 12C24.9688 6.48 20.4988 2 14.9688 2ZM17.9688 14.23L15.0687 15.9C14.7087 16.11 14.3088 16.21 13.9187 16.21C13.5188 16.21 13.1287 16.11 12.7688 15.9C12.0487 15.48 11.6187 14.74 11.6187 13.9V10.55C11.6187 9.72 12.0487 8.97 12.7688 8.55C13.4888 8.13 14.3487 8.13 15.0787 8.55L17.9787 10.22C18.6987 10.64 19.1287 11.38 19.1287 12.22C19.1287 13.06 18.6987 13.81 17.9688 14.23Z" fill="#5D50C6"/>
</g>
<defs>
<filter id="filter0_d_1156_759" x="-1" y="0" width="32" height="32" filterUnits="userSpaceOnUse" color-interpolation-filters="sRGB">
<feFlood flood-opacity="0" result="BackgroundImageFix"/>
<feColorMatrix in="SourceAlpha" type="matrix" values="0 0 0 0 0 0 0 0 0 0 0 0 0 0 0 0 0 0 127 0" result="hardAlpha"/>
<feOffset dy="4"/>
<feGaussianBlur stdDeviation="2"/>
<feComposite in2="hardAlpha" operator="out"/>
<feColorMatrix type="matrix" values="0 0 0 0 0 0 0 0 0 0 0 0 0 0 0 0 0 0 0.25 0"/>
<feBlend mode="normal" in2="BackgroundImageFix" result="effect1_dropShadow_1156_759"/>
<feBlend mode="normal" in="SourceGraphic" in2="effect1_dropShadow_1156_759" result="shape"/>
</filter>
</defs>
</svg>
